<?xml version="1.0" encoding="utf-8"?>
<svg viewBox="372.9768 367.3133 202.2 312" xmlns="http://www.w3.org/2000/svg">
  <g transform="matrix(0.10000000149011612, 0, 0, -0.10000000149011612, -2.0232150856139697, 986.3133081542446)" fill="#000000" stroke="none">
    <path d="M4715 5956 c-96 -129 -179 -237 -184 -240 -4 -3 -35 29 -67 72 -33 42 -111 143 -173 225 -62 81 -119 147 -127 147 -8 0 -14 5 -14 10 0 6 -73 10 -200 10 l-200 0 0 -734 0 -733 71 -102 72 -101 188 0 189 0 0 298 0 299 -60 86 c-54 77 -77 134 -50 125 5 -1 80 -86 166 -188 202 -238 223 -262 234 -258 4 2 61 66 125 143 64 77 124 147 133 155 13 11 14 11 4 0 -8 -10 -12 -64 -12 -187 l0 -173 -185 0 c-102 0 -185 -2 -185 -5 0 -9 308 -415 351 -463 l38 -43 212 1 c167 1 214 -2 227 -13 10 -7 48 -39 85 -70 l68 -57 175 0 c132 0 174 3 174 13 0 6 1 145 1 307 l1 295 -24 3 c-12 2 -27 10 -31 18 -6 11 -45 14 -195 14 l-187 0 3 657 c1 362 0 668 -3 681 -4 15 -13 22 -30 22 -14 0 -25 5 -25 10 0 6 -72 10 -195 10 l-194 0 -176 -234z m592 -484 c2 -579 1 -662 -12 -662 -13 0 -15 85 -15 666 0 528 3 665 13 661 9 -3 12 -147 14 -665z m-494 -259 c-59 -70 -141 -168 -182 -216 -46 -55 -78 -84 -84 -78 -13 13 -14 11 188 254 152 184 180 213 183 193 3 -20 -21 -54 -105 -153z m-685 111 c0 -19 -4 -34 -9 -34 -5 0 -9 21 -9 48 0 31 3 42 9 33 5 -8 9 -29 9 -47z m112 -498 l0 -283 -61 -7 c-95 -9 -257 -7 -264 4 -4 7 48 10 149 10 l156 0 0 286 c0 187 3 283 10 279 6 -4 10 -111 10 -289z m1501 -356 l-1 -275 -157 -1 -158 0 145 5 145 6 2 270 c2 149 3 272 3 273 0 2 5 2 11 0 7 -2 11 -88 10 -278z m-531 -130 c0 -6 -68 -10 -184 -10 -113 0 -187 4 -191 10 -4 7 60 10 184 10 121 0 191 -4 191 -10z"/>
    <path d="M4350 3934 c1 -803 1 -816 20 -821 11 -3 20 -14 20 -24 0 -18 12 -19 240 -19 l240 0 0 230 0 230 173 2 172 3 0 225 0 225 -27 3 c-16 2 -28 8 -28 13 0 5 -64 9 -150 9 l-150 0 0 59 c0 58 -1 60 -83 167 -46 60 -150 197 -231 304 -81 107 -152 195 -156 195 -5 0 -12 3 -16 8 -4 4 -11 7 -16 7 -4 0 -8 -367 -8 -816z m480 129 c0 -29 -4 -53 -10 -53 -6 0 -10 29 -10 68 0 47 3 63 10 52 5 -8 10 -39 10 -67z m358 -306 l2 -197 -175 0 -175 0 0 -230 0 -230 -212 2 -213 3 203 2 202 3 0 230 0 230 170 0 170 0 0 196 c0 152 3 195 13 192 9 -4 13 -55 15 -201z"/>
  </g>
</svg>